<svg width="158" height="29" viewBox="0 0 158 29" fill="none" xmlns="http://www.w3.org/2000/svg">
<g clip-path="url(#clip0_1_2)">
<path d="M11.54 29C8.64667 29 6.53333 28.3333 5.2 27C3.86667 25.6667 3.2 23.5533 3.2 20.66V11.56C3.2 8.64 3.86 6.52 5.18 5.2C6.51333 3.88 8.62 3.22 11.5 3.22H16.34C18.7933 3.22 20.62 3.73333 21.82 4.76C23.02 5.77333 23.68 7.40667 23.8 9.66C23.84 10.02 23.7667 10.2933 23.58 10.48C23.4067 10.6667 23.1467 10.76 22.8 10.76C22.1333 10.76 21.7667 10.4067 21.7 9.7C21.6067 8.04667 21.1533 6.90667 20.34 6.28C19.5267 5.64 18.1933 5.32 16.34 5.32H11.5C9.96667 5.32 8.74667 5.52 7.84 5.92C6.93333 6.30667 6.28 6.96 5.88 7.88C5.49333 8.78667 5.3 10.0133 5.3 11.56V20.66C5.3 22.2067 5.5 23.4333 5.9 24.34C6.3 25.2467 6.95333 25.9 7.86 26.3C8.76667 26.7 9.99333 26.9 11.54 26.9H16.34C18.1933 26.9 19.5267 26.5867 20.34 25.96C21.1533 25.32 21.6067 24.1733 21.7 22.52C21.7667 21.8133 22.1333 21.46 22.8 21.46C23.1467 21.46 23.4067 21.56 23.58 21.76C23.7667 21.9467 23.84 22.2133 23.8 22.56C23.68 24.8133 23.02 26.4533 21.82 27.48C20.62 28.4933 18.7933 29 16.34 29H11.54ZM32.6016 29C31.8949 29 31.5416 28.6467 31.5416 27.94V4.28C31.5416 3.57333 31.8949 3.22 32.6016 3.22C33.2949 3.22 33.6416 3.57333 33.6416 4.28V26.9H45.8016C46.5082 26.9 46.8616 27.2467 46.8616 27.94C46.8616 28.6467 46.5082 29 45.8016 29H32.6016ZM50.7216 28.9C50.0816 28.62 49.8882 28.1533 50.1416 27.5L60.0616 4.04C60.2749 3.49333 60.6682 3.22 61.2416 3.22H61.3616C61.9082 3.23333 62.2949 3.50667 62.5216 4.04L72.4416 27.5C72.7082 28.1533 72.5216 28.62 71.8816 28.9C71.2282 29.1667 70.7749 28.98 70.5216 28.34L67.8616 22.04H54.7616L52.1016 28.34C51.8349 28.98 51.3749 29.1667 50.7216 28.9ZM55.6216 19.94H66.9816L61.3016 6.54L55.6216 19.94ZM95.9519 29.04C95.6585 29.2133 95.3919 29.2733 95.1519 29.22C94.9119 29.1667 94.6985 29 94.5119 28.72L87.9519 18.28H80.6119V27.94C80.6119 28.6467 80.2652 29 79.5719 29C78.8652 29 78.5119 28.6467 78.5119 27.94V4.28C78.5119 3.57333 78.8652 3.22 79.5719 3.22H88.9319C91.2119 3.22 92.9319 3.80667 94.0919 4.98C95.2652 6.15333 95.8519 7.88 95.8519 10.16V11.36C95.8519 13.3733 95.3919 14.9533 94.4719 16.1C93.5519 17.2467 92.1919 17.9467 90.3919 18.2L96.2919 27.6C96.6652 28.2133 96.5519 28.6933 95.9519 29.04ZM80.6119 16.18H88.9319C90.6119 16.18 91.8319 15.8 92.5919 15.04C93.3652 14.2667 93.7519 13.04 93.7519 11.36V10.16C93.7519 8.46667 93.3652 7.24 92.5919 6.48C91.8319 5.70667 90.6119 5.32 88.9319 5.32H80.6119V16.18ZM104.483 29C104.149 29 103.889 28.9067 103.703 28.72C103.516 28.5333 103.423 28.2733 103.423 27.94V4.26C103.423 3.92666 103.516 3.66667 103.703 3.48C103.889 3.29333 104.149 3.2 104.483 3.2C104.803 3.2 105.056 3.29333 105.243 3.48C105.429 3.66667 105.523 3.92666 105.523 4.26V27.94C105.523 28.2733 105.429 28.5333 105.243 28.72C105.056 28.9067 104.803 29 104.483 29ZM145.068 29C144.375 29 144.028 28.6467 144.028 27.94V19.04L135.068 4.88C134.708 4.30667 134.822 3.82 135.408 3.42C136.008 3.04667 136.495 3.16 136.868 3.76L145.068 16.78L153.408 3.74C153.595 3.46 153.808 3.29333 154.048 3.24C154.288 3.18667 154.555 3.25333 154.848 3.44C155.448 3.8 155.555 4.28 155.168 4.88L146.128 19.04V27.94C146.128 28.6467 145.775 29 145.068 29Z" fill="white"/>
<path d="M121.813 29.02C121.493 29.02 121.233 28.9267 121.033 28.74C120.846 28.5533 120.753 28.3 120.753 27.98V5.3H112.253C111.933 5.3 111.673 5.20667 111.473 5.02C111.286 4.83333 111.193 4.58 111.193 4.26C111.193 3.94 111.286 3.68667 111.473 3.5C111.673 3.3 111.933 3.2 112.253 3.2H131.373C131.693 3.2 131.946 3.3 132.133 3.5C132.32 3.68667 132.413 3.94 132.413 4.26C132.413 4.58 132.32 4.83333 132.133 5.02C131.946 5.20667 131.693 5.3 131.373 5.3H122.853V27.98C122.853 28.2867 122.753 28.54 122.553 28.74C122.366 28.9267 122.12 29.02 121.813 29.02Z" fill="#3E88C5"/>
</g>
<defs>
<clipPath id="clip0_1_2">
<rect width="158" height="29" fill="white"/>
</clipPath>
</defs>
</svg>
